<?xml version="1.0" encoding="utf-8" standalone="no"?>
<!DOCTYPE svg PUBLIC "-//W3C//DTD SVG 1.1//EN"
  "http://www.w3.org/Graphics/SVG/1.1/DTD/svg11.dtd">
<!-- Created with matplotlib (https://matplotlib.org/) -->
<svg  version="1.1" viewBox="0 0 720 576"  xmlns="http://www.w3.org/2000/svg" xmlns:xlink="http://www.w3.org/1999/xlink">
 <metadata>
  <rdf:RDF xmlns:cc="http://creativecommons.org/ns#" xmlns:dc="http://purl.org/dc/elements/1.1/" xmlns:rdf="http://www.w3.org/1999/02/22-rdf-syntax-ns#">
   <cc:Work>
    <dc:type rdf:resource="http://purl.org/dc/dcmitype/StillImage"/>
    <dc:date>2021-03-10T21:28:57.928664</dc:date>
    <dc:format>image/svg+xml</dc:format>
    <dc:creator>
     <cc:Agent>
      <dc:title>Matplotlib v3.3.4, https://matplotlib.org/</dc:title>
     </cc:Agent>
    </dc:creator>
   </cc:Work>
  </rdf:RDF>
 </metadata>
 <defs>
  <style type="text/css">*{stroke-linecap:butt;stroke-linejoin:round;} text,tspan{fill:currentColor}</style>
 </defs>
 <g id="figure_1">
  <g id="patch_1">
   <path d="M 0 576 
L 720 576 
L 720 0 
L 0 0 
z
" style="fill:none;"/>
  </g>
  <g id="axes_1">
   <g id="patch_2">
    <path d="M 90 512.64 
L 648 512.64 
L 648 69.12 
L 90 69.12 
z
" style="fill:none;"/>
   </g>
   <g id="matplotlib.axis_1">
    <g id="xtick_1">
     <g id="line2d_1">
      <path clip-path="url(#p67293fcf93)" d="M 115.363636 512.64 
L 115.363636 69.12 
" style="fill:none;stroke:#b0b0b0;stroke-linecap:square;stroke-width:0.8;"/>
     </g>
     <g id="line2d_2">
      <defs>
       <path d="M 0 0 
L 0 3.5 
" id="mb29602845c" style="stroke:currentColor;stroke-width:0.8;"/>
      </defs>
      <g>
       <use style="stroke:currentColor;stroke-width:0.8;" x="115.363636" xlink:href="#mb29602845c" y="512.64"/>
      </g>
     </g>
     <g id="text_1">
      <!-- $\mathdefault{10^{0}}$ -->
      <g transform="translate(106.563636 527.238438)">
       <text>
        <tspan style="font-size:10px;" x="0 6.362305" y="-0.9765625">10</tspan>
        <tspan style="font-size:7px;" x="12.820312" y="-4.8046875">0</tspan>
       </text>
      </g>
     </g>
    </g>
    <g id="xtick_2">
     <g id="line2d_3">
      <path clip-path="url(#p67293fcf93)" d="M 284.454545 512.64 
L 284.454545 69.12 
" style="fill:none;stroke:#b0b0b0;stroke-linecap:square;stroke-width:0.8;"/>
     </g>
     <g id="line2d_4">
      <g>
       <use style="stroke:currentColor;stroke-width:0.8;" x="284.454545" xlink:href="#mb29602845c" y="512.64"/>
      </g>
     </g>
     <g id="text_2">
      <!-- $\mathdefault{10^{1}}$ -->
      <g transform="translate(275.654545 527.238438)">
       <text>
        <tspan style="font-size:10px;" x="0 6.362305" y="-0.06406250000000036">10</tspan>
        <tspan style="font-size:7px;" x="12.820312" y="-3.8921875000000004">1</tspan>
       </text>
      </g>
     </g>
    </g>
    <g id="xtick_3">
     <g id="line2d_5">
      <path clip-path="url(#p67293fcf93)" d="M 453.545455 512.64 
L 453.545455 69.12 
" style="fill:none;stroke:#b0b0b0;stroke-linecap:square;stroke-width:0.8;"/>
     </g>
     <g id="line2d_6">
      <g>
       <use style="stroke:currentColor;stroke-width:0.8;" x="453.545455" xlink:href="#mb29602845c" y="512.64"/>
      </g>
     </g>
     <g id="text_3">
      <!-- $\mathdefault{10^{2}}$ -->
      <g transform="translate(444.745455 527.238438)">
       <text>
        <tspan style="font-size:10px;" x="0 6.362305" y="-0.9765625">10</tspan>
        <tspan style="font-size:7px;" x="12.820312" y="-4.8046875">2</tspan>
       </text>
      </g>
     </g>
    </g>
    <g id="xtick_4">
     <g id="line2d_7">
      <path clip-path="url(#p67293fcf93)" d="M 622.636364 512.64 
L 622.636364 69.12 
" style="fill:none;stroke:#b0b0b0;stroke-linecap:square;stroke-width:0.8;"/>
     </g>
     <g id="line2d_8">
      <g>
       <use style="stroke:currentColor;stroke-width:0.8;" x="622.636364" xlink:href="#mb29602845c" y="512.64"/>
      </g>
     </g>
     <g id="text_4">
      <!-- $\mathdefault{10^{3}}$ -->
      <g transform="translate(613.836364 527.238438)">
       <text>
        <tspan style="font-size:10px;" x="0 6.362305" y="-0.9765625">10</tspan>
        <tspan style="font-size:7px;" x="12.820312" y="-4.8046875">3</tspan>
       </text>
      </g>
     </g>
    </g>
    <g id="xtick_5">
     <g id="line2d_9">
      <defs>
       <path d="M 0 0 
L 0 2 
" id="mab622ccf23" style="stroke:currentColor;stroke-width:0.6;"/>
      </defs>
      <g>
       <use style="stroke:currentColor;stroke-width:0.6;" x="98.977034" xlink:href="#mab622ccf23" y="512.64"/>
      </g>
     </g>
    </g>
    <g id="xtick_6">
     <g id="line2d_10">
      <g>
       <use style="stroke:currentColor;stroke-width:0.6;" x="107.626461" xlink:href="#mab622ccf23" y="512.64"/>
      </g>
     </g>
    </g>
    <g id="xtick_7">
     <g id="line2d_11">
      <g>
       <use style="stroke:currentColor;stroke-width:0.6;" x="166.265072" xlink:href="#mab622ccf23" y="512.64"/>
      </g>
     </g>
    </g>
    <g id="xtick_8">
     <g id="line2d_12">
      <g>
       <use style="stroke:currentColor;stroke-width:0.6;" x="196.040503" xlink:href="#mab622ccf23" y="512.64"/>
      </g>
     </g>
    </g>
    <g id="xtick_9">
     <g id="line2d_13">
      <g>
       <use style="stroke:currentColor;stroke-width:0.6;" x="217.166508" xlink:href="#mab622ccf23" y="512.64"/>
      </g>
     </g>
    </g>
    <g id="xtick_10">
     <g id="line2d_14">
      <g>
       <use style="stroke:currentColor;stroke-width:0.6;" x="233.55311" xlink:href="#mab622ccf23" y="512.64"/>
      </g>
     </g>
    </g>
    <g id="xtick_11">
     <g id="line2d_15">
      <g>
       <use style="stroke:currentColor;stroke-width:0.6;" x="246.941939" xlink:href="#mab622ccf23" y="512.64"/>
      </g>
     </g>
    </g>
    <g id="xtick_12">
     <g id="line2d_16">
      <g>
       <use style="stroke:currentColor;stroke-width:0.6;" x="258.262032" xlink:href="#mab622ccf23" y="512.64"/>
      </g>
     </g>
    </g>
    <g id="xtick_13">
     <g id="line2d_17">
      <g>
       <use style="stroke:currentColor;stroke-width:0.6;" x="268.067943" xlink:href="#mab622ccf23" y="512.64"/>
      </g>
     </g>
    </g>
    <g id="xtick_14">
     <g id="line2d_18">
      <g>
       <use style="stroke:currentColor;stroke-width:0.6;" x="276.71737" xlink:href="#mab622ccf23" y="512.64"/>
      </g>
     </g>
    </g>
    <g id="xtick_15">
     <g id="line2d_19">
      <g>
       <use style="stroke:currentColor;stroke-width:0.6;" x="335.355981" xlink:href="#mab622ccf23" y="512.64"/>
      </g>
     </g>
    </g>
    <g id="xtick_16">
     <g id="line2d_20">
      <g>
       <use style="stroke:currentColor;stroke-width:0.6;" x="365.131412" xlink:href="#mab622ccf23" y="512.64"/>
      </g>
     </g>
    </g>
    <g id="xtick_17">
     <g id="line2d_21">
      <g>
       <use style="stroke:currentColor;stroke-width:0.6;" x="386.257417" xlink:href="#mab622ccf23" y="512.64"/>
      </g>
     </g>
    </g>
    <g id="xtick_18">
     <g id="line2d_22">
      <g>
       <use style="stroke:currentColor;stroke-width:0.6;" x="402.644019" xlink:href="#mab622ccf23" y="512.64"/>
      </g>
     </g>
    </g>
    <g id="xtick_19">
     <g id="line2d_23">
      <g>
       <use style="stroke:currentColor;stroke-width:0.6;" x="416.032848" xlink:href="#mab622ccf23" y="512.64"/>
      </g>
     </g>
    </g>
    <g id="xtick_20">
     <g id="line2d_24">
      <g>
       <use style="stroke:currentColor;stroke-width:0.6;" x="427.352941" xlink:href="#mab622ccf23" y="512.64"/>
      </g>
     </g>
    </g>
    <g id="xtick_21">
     <g id="line2d_25">
      <g>
       <use style="stroke:currentColor;stroke-width:0.6;" x="437.158852" xlink:href="#mab622ccf23" y="512.64"/>
      </g>
     </g>
    </g>
    <g id="xtick_22">
     <g id="line2d_26">
      <g>
       <use style="stroke:currentColor;stroke-width:0.6;" x="445.808279" xlink:href="#mab622ccf23" y="512.64"/>
      </g>
     </g>
    </g>
    <g id="xtick_23">
     <g id="line2d_27">
      <g>
       <use style="stroke:currentColor;stroke-width:0.6;" x="504.44689" xlink:href="#mab622ccf23" y="512.64"/>
      </g>
     </g>
    </g>
    <g id="xtick_24">
     <g id="line2d_28">
      <g>
       <use style="stroke:currentColor;stroke-width:0.6;" x="534.222321" xlink:href="#mab622ccf23" y="512.64"/>
      </g>
     </g>
    </g>
    <g id="xtick_25">
     <g id="line2d_29">
      <g>
       <use style="stroke:currentColor;stroke-width:0.6;" x="555.348326" xlink:href="#mab622ccf23" y="512.64"/>
      </g>
     </g>
    </g>
    <g id="xtick_26">
     <g id="line2d_30">
      <g>
       <use style="stroke:currentColor;stroke-width:0.6;" x="571.734928" xlink:href="#mab622ccf23" y="512.64"/>
      </g>
     </g>
    </g>
    <g id="xtick_27">
     <g id="line2d_31">
      <g>
       <use style="stroke:currentColor;stroke-width:0.6;" x="585.123757" xlink:href="#mab622ccf23" y="512.64"/>
      </g>
     </g>
    </g>
    <g id="xtick_28">
     <g id="line2d_32">
      <g>
       <use style="stroke:currentColor;stroke-width:0.6;" x="596.44385" xlink:href="#mab622ccf23" y="512.64"/>
      </g>
     </g>
    </g>
    <g id="xtick_29">
     <g id="line2d_33">
      <g>
       <use style="stroke:currentColor;stroke-width:0.6;" x="606.249761" xlink:href="#mab622ccf23" y="512.64"/>
      </g>
     </g>
    </g>
    <g id="xtick_30">
     <g id="line2d_34">
      <g>
       <use style="stroke:currentColor;stroke-width:0.6;" x="614.899188" xlink:href="#mab622ccf23" y="512.64"/>
      </g>
     </g>
    </g>
    <g id="text_5">
     <text style="font-size:10px;font-stretch:normal;text-anchor:middle;" transform="rotate(-0, 369, 540.916563)" x="369" y="540.916563">Количество разложений</text>
    </g>
   </g>
   <g id="matplotlib.axis_2">
    <g id="ytick_1">
     <g id="line2d_35">
      <path clip-path="url(#p67293fcf93)" d="M 90 464.380769 
L 648 464.380769 
" style="fill:none;stroke:#b0b0b0;stroke-linecap:square;stroke-width:0.8;"/>
     </g>
     <g id="line2d_36">
      <defs>
       <path d="M 0 0 
L -3.5 0 
" id="m2d51752f0a" style="stroke:currentColor;stroke-width:0.8;"/>
      </defs>
      <g>
       <use style="stroke:currentColor;stroke-width:0.8;" x="90" xlink:href="#m2d51752f0a" y="464.380769"/>
      </g>
     </g>
     <g id="text_6">
      <!-- $\mathdefault{10^{-5}}$ -->
      <g transform="translate(59.5 468.179987)">
       <text>
        <tspan style="font-size:10px;" x="0 6.362305" y="-0.06406250000000036">10</tspan>
        <tspan style="font-size:7px;" x="12.820312 18.685547" y="-3.8921875000000004">−5</tspan>
       </text>
      </g>
     </g>
    </g>
    <g id="ytick_2">
     <g id="line2d_37">
      <path clip-path="url(#p67293fcf93)" d="M 90 383.978945 
L 648 383.978945 
" style="fill:none;stroke:#b0b0b0;stroke-linecap:square;stroke-width:0.8;"/>
     </g>
     <g id="line2d_38">
      <g>
       <use style="stroke:currentColor;stroke-width:0.8;" x="90" xlink:href="#m2d51752f0a" y="383.978945"/>
      </g>
     </g>
     <g id="text_7">
      <!-- $\mathdefault{10^{-3}}$ -->
      <g transform="translate(59.5 387.778164)">
       <text>
        <tspan style="font-size:10px;" x="0 6.362305" y="-0.9765625">10</tspan>
        <tspan style="font-size:7px;" x="12.820312 18.685547" y="-4.8046875">−3</tspan>
       </text>
      </g>
     </g>
    </g>
    <g id="ytick_3">
     <g id="line2d_39">
      <path clip-path="url(#p67293fcf93)" d="M 90 303.577121 
L 648 303.577121 
" style="fill:none;stroke:#b0b0b0;stroke-linecap:square;stroke-width:0.8;"/>
     </g>
     <g id="line2d_40">
      <g>
       <use style="stroke:currentColor;stroke-width:0.8;" x="90" xlink:href="#m2d51752f0a" y="303.577121"/>
      </g>
     </g>
     <g id="text_8">
      <!-- $\mathdefault{10^{-1}}$ -->
      <g transform="translate(59.5 307.37634)">
       <text>
        <tspan style="font-size:10px;" x="0 6.362305" y="-0.06406250000000036">10</tspan>
        <tspan style="font-size:7px;" x="12.820312 18.685547" y="-3.8921875000000004">−1</tspan>
       </text>
      </g>
     </g>
    </g>
    <g id="ytick_4">
     <g id="line2d_41">
      <path clip-path="url(#p67293fcf93)" d="M 90 223.175298 
L 648 223.175298 
" style="fill:none;stroke:#b0b0b0;stroke-linecap:square;stroke-width:0.8;"/>
     </g>
     <g id="line2d_42">
      <g>
       <use style="stroke:currentColor;stroke-width:0.8;" x="90" xlink:href="#m2d51752f0a" y="223.175298"/>
      </g>
     </g>
     <g id="text_9">
      <!-- $\mathdefault{10^{1}}$ -->
      <g transform="translate(65.4 226.974517)">
       <text>
        <tspan style="font-size:10px;" x="0 6.362305" y="-0.06406250000000036">10</tspan>
        <tspan style="font-size:7px;" x="12.820312" y="-3.8921875000000004">1</tspan>
       </text>
      </g>
     </g>
    </g>
    <g id="ytick_5">
     <g id="line2d_43">
      <path clip-path="url(#p67293fcf93)" d="M 90 142.773474 
L 648 142.773474 
" style="fill:none;stroke:#b0b0b0;stroke-linecap:square;stroke-width:0.8;"/>
     </g>
     <g id="line2d_44">
      <g>
       <use style="stroke:currentColor;stroke-width:0.8;" x="90" xlink:href="#m2d51752f0a" y="142.773474"/>
      </g>
     </g>
     <g id="text_10">
      <!-- $\mathdefault{10^{3}}$ -->
      <g transform="translate(65.4 146.572693)">
       <text>
        <tspan style="font-size:10px;" x="0 6.362305" y="-0.9765625">10</tspan>
        <tspan style="font-size:7px;" x="12.820312" y="-4.8046875">3</tspan>
       </text>
      </g>
     </g>
    </g>
    <g id="text_11">
     <text style="font-size:10px;font-stretch:normal;text-anchor:middle;" transform="rotate(-90, 53.420312, 290.88)" x="53.420312" y="290.88">Время, с</text>
    </g>
   </g>
   <g id="line2d_45">
    <defs>
     <path d="M -3 0 
L 3 0 
M 0 3 
L 0 -3 
" id="mf3be328592" style="stroke:currentColor;"/>
    </defs>
    <g clip-path="url(#p67293fcf93)">
     <use style="stroke:currentColor;" x="115.363636" xlink:href="#mf3be328592" y="492.48"/>
     <use style="stroke:currentColor;" x="196.040503" xlink:href="#mf3be328592" y="464.912557"/>
     <use style="stroke:currentColor;" x="276.71737" xlink:href="#mf3be328592" y="422.515833"/>
     <use style="stroke:currentColor;" x="357.394236" xlink:href="#mf3be328592" y="369.437156"/>
     <use style="stroke:currentColor;" x="438.071103" xlink:href="#mf3be328592" y="300.393963"/>
     <use style="stroke:currentColor;" x="518.74797" xlink:href="#mf3be328592" y="216.096269"/>
    </g>
   </g>
   <g id="line2d_46">
    <path clip-path="url(#p67293fcf93)" d="M 115.363636 492.164689 
L 120.487603 490.849891 
L 125.61157 489.478873 
L 130.735537 488.051636 
L 135.859504 486.56818 
L 140.983471 485.028505 
L 146.107438 483.43261 
L 151.231405 481.780496 
L 156.355372 480.072163 
L 161.479339 478.30761 
L 166.603306 476.486839 
L 171.727273 474.609848 
L 176.85124 472.676637 
L 181.975207 470.687208 
L 187.099174 468.641559 
L 192.22314 466.539691 
L 197.347107 464.381603 
L 202.471074 462.167297 
L 207.595041 459.896771 
L 212.719008 457.570026 
L 217.842975 455.187061 
L 222.966942 452.747878 
L 228.090909 450.252475 
L 233.214876 447.700853 
L 238.338843 445.093011 
L 243.46281 442.42895 
L 248.586777 439.70867 
L 253.710744 436.932171 
L 258.834711 434.099453 
L 263.958678 431.210515 
L 269.082645 428.265358 
L 274.206612 425.263982 
L 279.330579 422.206386 
L 284.454545 419.092571 
L 289.578512 415.922537 
L 294.702479 412.696284 
L 299.826446 409.413811 
L 304.950413 406.075119 
L 310.07438 402.680208 
L 315.198347 399.229078 
L 320.322314 395.721728 
L 325.446281 392.158159 
L 330.570248 388.538371 
L 335.694215 384.862363 
L 340.818182 381.130137 
L 345.942149 377.341691 
L 351.066116 373.497025 
L 356.190083 369.596141 
L 361.31405 365.639037 
L 366.438017 361.625714 
L 371.561983 357.556172 
L 376.68595 353.43041 
L 381.809917 349.248429 
L 386.933884 345.010229 
L 392.057851 340.71581 
L 397.181818 336.365171 
L 402.305785 331.958313 
L 407.429752 327.495236 
L 412.553719 322.97594 
L 417.677686 318.400424 
L 422.801653 313.768689 
L 427.92562 309.080735 
L 433.049587 304.336561 
L 438.173554 299.536169 
L 443.297521 294.679557 
L 448.421488 289.766725 
L 453.545455 284.797675 
L 458.669421 279.772405 
L 463.793388 274.690916 
L 468.917355 269.553208 
L 474.041322 264.35928 
L 479.165289 259.109133 
L 484.289256 253.802767 
L 489.413223 248.440182 
L 494.53719 243.021377 
L 499.661157 237.546353 
L 504.785124 232.01511 
L 509.909091 226.427647 
L 515.033058 220.783966 
L 520.157025 215.084065 
L 525.280992 209.327944 
L 530.404959 203.515605 
L 535.528926 197.647046 
L 540.652893 191.722268 
L 545.77686 185.741271 
L 550.900826 179.704054 
L 556.024793 173.610619 
L 561.14876 167.460963 
L 566.272727 161.255089 
L 571.396694 154.992996 
L 576.520661 148.674683 
L 581.644628 142.300151 
L 586.768595 135.869399 
L 591.892562 129.382428 
L 597.016529 122.839239 
L 602.140496 116.239829 
L 607.264463 109.584201 
L 612.38843 102.872353 
L 617.512397 96.104286 
L 622.636364 89.28 
" style="fill:none;stroke:currentColor;stroke-linecap:square;"/>
   </g>
   <g id="patch_3">
    <path d="M 90 512.64 
L 90 69.12 
" style="fill:none;stroke:currentColor;stroke-linecap:square;stroke-linejoin:miter;stroke-width:0.8;"/>
   </g>
   <g id="patch_4">
    <path d="M 648 512.64 
L 648 69.12 
" style="fill:none;stroke:currentColor;stroke-linecap:square;stroke-linejoin:miter;stroke-width:0.8;"/>
   </g>
   <g id="patch_5">
    <path d="M 90 512.64 
L 648 512.64 
" style="fill:none;stroke:currentColor;stroke-linecap:square;stroke-linejoin:miter;stroke-width:0.8;"/>
   </g>
   <g id="patch_6">
    <path d="M 90 69.12 
L 648 69.12 
" style="fill:none;stroke:currentColor;stroke-linecap:square;stroke-linejoin:miter;stroke-width:0.8;"/>
   </g>
  </g>
 </g>
 <defs>
  <clipPath id="p67293fcf93">
   <rect height="443.52" width="558" x="90" y="69.12"/>
  </clipPath>
 </defs>
</svg>
